<?xml version="1.0" encoding="UTF-8" standalone="no"?>
<!DOCTYPE svg PUBLIC "-//W3C//DTD SVG 1.1//EN" "http://www.w3.org/Graphics/SVG/1.1/DTD/svg11.dtd">
<!-- Created with Vectornator (http://vectornator.io/) -->
<svg height="100%" stroke-miterlimit="10" style="fill-rule:nonzero;clip-rule:evenodd;stroke-linecap:round;stroke-linejoin:round;" version="1.1" viewBox="0 0 800 600" width="100%" xml:space="preserve" xmlns="http://www.w3.org/2000/svg" xmlns:vectornator="http://vectornator.io" xmlns:xlink="http://www.w3.org/1999/xlink">
<defs/>
<g id="Capa-1" vectornator:layerName="Capa 1">
<path d="M405.133 142.915L443.364 165.952L308.833 252.285L267.168 207.802L375.182 118.43L405.133 142.915Z" fill="#fafafa" fill-rule="evenodd" opacity="1" stroke="none"/>
<path d="M500.674 142.286C500.674 142.286 500.323 125.217 491.773 118.054C487.758 114.691 488.177 109.617 448.046 136.849C407.916 164.081 374.944 207.676 331.25 226.982C301.244 240.24 265.492 224.861 282.203 198.441C298.914 172.021 333.877 160.109 378.617 131.597C388.537 125.275 395.643 133.501 395.643 133.501L407.015 141.957C407.015 141.957 411.179 107.921 404.624 94.2431C398.07 80.565 380.798 87.2444 380.798 87.2444C380.798 87.2444 257.513 169.285 255.927 171.068C253.958 173.282 239.57 176.66 238.701 197.387C235.635 270.454 234.96 462.844 234.96 462.844C234.96 462.844 243.937 489.791 269.301 500.198C294.665 510.605 326.065 516.473 379.966 483.083C436.732 447.918 494.989 400.077 498.336 391.265C507.871 366.157 502.024 312.265 502.608 250.021C503.193 187.776 500.674 142.286 500.674 142.286Z" fill="#000000" fill-rule="evenodd" opacity="1" stroke="#000000" stroke-linecap="round" stroke-linejoin="round" stroke-width="2.6051"/>
<g opacity="1">
<path d="M336.071 296.226L430.912 293.6L432.792 396L337.951 398.626L336.071 296.226Z" fill="#fafafa" fill-rule="evenodd" opacity="1" stroke="#000000" stroke-linecap="round" stroke-linejoin="round" stroke-width="2.6051"/>
<path d="M430.009 294.231L336.317 297.433L404.54 257.35L482.692 254.576L429.828 293.221L432.857 397.372L485.801 358.508L482.01 254.661L430.009 294.231Z" fill="#fafafa" fill-rule="evenodd" opacity="1" stroke="#000000" stroke-linecap="round" stroke-linejoin="round" stroke-width="2.6051"/>
</g>
</g>
<g id="Capa-2" vectornator:layerName="Capa 2">
<path d="M509.56 432.762" fill="#fafafa" fill-rule="evenodd" opacity="1" stroke="none"/>
</g>
</svg>
